<svg xmlns="http://www.w3.org/2000/svg" enable-background="new 0 0 3000 3000" viewBox="0 0 3000 3000"><path fill="#f9ec31" d="M2115.25,601.69l113.58,400.08c14.05,49.47,51.19,89.08,99.66,106.26l244.8,86.78
	c95.2,33.75,135.08,146.65,82.21,232.71l-184.84,300.87c-32.99,53.7-31.09,121.83,4.85,173.61l77.61,111.82
	c76.42,110.1-9.56,259.5-143.15,248.74l-815.01-65.67c-45.36-3.66-90.11,12.34-122.89,43.91L1143.89,2557
	c-93.78,90.36-250.47,35.56-267.51-93.55l-34.37-260.52c-13.33-101.05-117.1-163.53-212.65-128.04h0
	c-122.55,45.52-244.51-68.32-207.53-193.71l45.27-153.49c18.44-62.54-3.23-129.99-54.65-170.08l-38.22-29.8
	c-112.68-87.86-61-268.22,81.12-283.06l270.02-28.2c73.8-7.71,132.41-65.51,141.14-139.19l56.23-474.34
	c15.25-128.64,169.85-185.83,265.15-98.09l271.04,249.55c68.38,62.96,175.98,53.95,232.94-19.49l145.23-187.23
	C1916.88,444.92,2079.7,476.5,2115.25,601.69z"/><path d="M650.12,1472.55c-6.63-45.2-17.03-87.32-31.51-127.31c-23.69-65.37-56.78-105.3-98.41-118.76
			c-0.96-0.31-1.93-0.61-2.9-0.89c-12.99-3.79-24.04-3.85-32.85-0.16c-18.07,7.58-25.07,31.15-21.41,49.57
			c4.15,20.84,18.72,38.86,32.43,53.72c16.9,18.33,35.61,35.68,53.67,52.46c23.21,21.55,47.22,43.82,68,68.64
			c5.02,6,9.73,12.1,14.16,18.26c33.86,82.37,70.46,197.72,66.17,304.04c-0.92,22.7-3.59,41.37-6.73,56.16
			c-7.14-42.49-33.39-109.03-117.72-185.27c-24.37-35.91-50.7-67.8-79.53-96.39c-49.38-48.94-96.38-70.88-139.76-65.23
			c-1,0.13-2,0.27-3,0.44c-13.37,2.13-23.38,6.81-29.76,13.92c-13.08,14.58-9.33,38.89,1.86,53.96
			c12.67,17.07,33.55,27.11,52.3,34.68c23.12,9.33,47.45,17.01,70.96,24.45c30.2,9.54,61.43,19.4,90.83,32.94
			c9.15,4.21,17.9,8.79,26.26,13.65c0.01,0.01,0.01,0.01,0.02,0.02c-4.67-0.29-10.12-0.39-16.47-0.17
			c-26.17-5.37-51.64-8.38-76.85-9.02c-47.5-1.2-81.15,9.92-100.08,33.06c-0.44,0.54-0.87,1.07-1.29,1.62
			c-5.65,7.32-8.43,14.34-8.28,20.87c0.33,13.38,13.58,23.71,26.22,25.96c14.3,2.55,29.39-2.24,42.26-7.27
			c15.87-6.19,31.57-13.78,46.75-21.1c19.49-9.41,39.64-19.14,60.61-26.19c2.01-0.67,4.01-1.31,6.01-1.92
			c26.88-1.59,37.06,2.73,37.56,2.95c1.29,0.66,2.69,0.89,4.04,0.81c49.17,49.67,72.25,93.17,83.01,124.09
			c15.73,45.23,9.19,73.88,9.11,74.25c-0.03,0.14-0.03,0.28-0.06,0.42c-0.05,0.28-0.09,0.55-0.12,0.82
			c-0.02,0.25-0.03,0.5-0.02,0.75c0,0.26,0.02,0.51,0.05,0.76c0.03,0.26,0.07,0.51,0.13,0.76c0.05,0.24,0.11,0.48,0.19,0.72
			c0.08,0.24,0.16,0.47,0.26,0.71c0.1,0.24,0.21,0.46,0.33,0.69c0.12,0.22,0.24,0.42,0.38,0.62c0.14,0.21,0.3,0.42,0.46,0.62
			c0.16,0.2,0.34,0.38,0.52,0.56c0.17,0.17,0.35,0.34,0.55,0.5c0.22,0.18,0.45,0.34,0.68,0.5c0.12,0.08,0.22,0.17,0.34,0.25
			c0.07,0.04,0.15,0.05,0.22,0.09c0.46,0.25,0.95,0.46,1.48,0.62c0.11,0.03,0.21,0.09,0.31,0.11c0.02,0,0.03,0.01,0.05,0.02
			c0.57,0.14,1.13,0.19,1.69,0.21c0.07,0,0.14,0.03,0.21,0.03c0,0,0,0,0.01,0s0,0,0.01,0c0.61,0,1.2-0.1,1.78-0.23
			c0.13-0.03,0.26-0.06,0.38-0.1c0.57-0.16,1.12-0.38,1.64-0.66c0.07-0.04,0.13-0.09,0.2-0.13c0.47-0.28,0.9-0.61,1.3-0.98
			c0.09-0.08,0.19-0.16,0.27-0.25c0.43-0.43,0.81-0.92,1.13-1.45c0.03-0.04,0.06-0.07,0.09-0.11c0.81-1.38,19.78-34.65,22.89-104.86
			C717.8,1669.32,683.54,1556.09,650.12,1472.55z"/><circle cx="515.94" cy="1274.52" r="16.67" fill="#fff"/><circle cx="378.37" cy="1537.64" r="16.67" fill="#fff"/><circle cx="401.2" cy="1692.54" r="13.89" fill="#fff"/><path d="M1861.83,2178.12c-0.16,0-0.31,0-0.46-0.01c-4.35-0.14-7.76-3.77-7.62-8.12s3.74-7.79,8.12-7.62c0.06,0,0.12,0,0.18,0
		c9.95,0,76.83-23.03,153.45-68.33c65.21-38.55,149.92-100.62,183.11-177.38c29.23-67.6,12.07-134.46-51-198.78
		c-13.4,32.3-28.08,62.41-43.81,89.56c-61.24,105.69-130.65,154.28-200.71,140.51c-60.64-11.91-98.07-48.68-105.39-103.52
		c-10.13-75.9,40.76-164.46,115.86-201.62c43.17-21.36,128.62-42.2,228.12,47.56c35.91-93.06,61.28-202.38,70.99-310.45
		c8.22-91.46,4.17-173.09-11.05-239.04c-6.87,7.38-14.01,14.07-21.43,20.08c-36.23,29.33-77.05,40.47-121.32,33.11
		c-72.57-12.06-120.7-56.5-128.75-118.86c-7.29-56.49,20.3-112.22,65.6-132.52c22.65-10.15,48.35-10.7,74.34-1.56
		c28.94,10.17,58.01,31.93,86.41,64.67c22.18,25.58,39.76,60.02,52.4,101.65c12.98-18.12,25.48-40.49,36.99-68.02
		c30.83-73.73,45.65-168.85,39.65-254.43c-6.27-89.32-34.28-158.25-76.86-189.12c-3.52-2.55-4.3-7.48-1.75-11
		c2.55-3.52,7.47-4.31,11-1.75c47.04,34.11,76.63,105.41,83.32,200.77c6.17,87.92-9.09,185.71-40.83,261.6
		c-13.22,31.63-28.7,58.64-46.26,80.79c17.85,69.7,23.02,157.02,14.21,255.04c-10.04,111.75-36.66,224.92-74.33,320.68
		c0.69,0.68,1.38,1.36,2.07,2.05c70.27,70.16,89.44,143.8,56.98,218.85c-34.88,80.65-122.33,144.94-189.55,184.68
		C1951.17,2150.37,1878.9,2178.12,1861.83,2178.12z M1991.45,1640.19c-29.56,0-53.84,8.3-70.9,16.73
		c-68.27,33.78-116.38,116.96-107.23,185.42c6.36,47.63,39.32,79.64,92.82,90.15c83.59,16.4,151.19-76.25,184.05-132.95
		c16.34-28.2,31.52-59.65,45.29-93.5C2081.11,1655.4,2031.46,1640.19,1991.45,1640.19z M2034,950.25c-11,0-21.65,2.25-31.83,6.82
		c-38.48,17.25-62.74,67.18-56.42,116.14c10.25,79.41,84.34,100.12,115.71,105.34c32.65,5.43,86.42,2.27,135.57-55.85
		c-12.16-44.21-29.77-80.41-52.46-106.57C2106.99,972.78,2068.77,950.25,2034,950.25z"/><path d="M494.45,1943.37c0-0.03,0-0.07,0-0.1l0-0.4l0.01,0c0.07-22.66,14.71-45.29,44.03-62.59l1177.98-690.33
			c58.95-34.79,154.95-34.77,214.28,0.03l511.75,300.31c29.86,17.52,44.75,40.53,44.68,63.5l0.01,0l-0.23,54.35
			c-0.07,22.68-14.74,45.32-44.02,62.61l-1177.98,690.33c-59.04,34.83-154.95,34.77-214.28-0.04l-511.75-300.32
			c-29.86-17.52-44.79-40.52-44.72-63.5L494.45,1943.37z"/><path fill="#fff" d="M1061.13,2289.92l-523.93-307.46c-32.09-18.83-32.08-65.89,0.02-84.71l1188.15-696.69
			c59.6-34.95,133.01-34.94,192.6,0.02l81.12,47.59c1.62,0.95,2.95,2.32,3.87,3.97l38.21,68.94c1.33,2.4,3.27,4.39,5.61,5.76
			l159.51,93.63c1.68,0.99,3.54,1.61,5.47,1.84l101.42,12.05c2.59,0.31,5.09,1.15,7.35,2.47l131.96,77.43
			c27.97,16.41,27.96,57.43-0.01,73.83l-1196.11,701.36C1195.96,2325.38,1121.53,2325.36,1061.13,2289.92z"/><path fill="#fff" d="M2094.46 1308.18l106.63 62.56c5.87 3.45 6.51 8.66 1.42 11.64-5.09 2.98-13.97 2.61-19.85-.84l-106.63-62.56c-5.87-3.45-6.51-8.66-1.42-11.64C2079.71 1304.36 2088.59 1304.73 2094.46 1308.18zM2237.55 1760.45c1.02-3.05 2.56-6.03 4.45-8.66 2.15-2.98 4.75-5.51 7.53-7.14l97.9-57.41c3.67-2.14 6.99-2.34 9.39-.95l9.69 5.66c-2.4-1.4-5.71-1.2-9.38.95l-97.9 57.41c-2.78 1.63-5.39 4.15-7.53 7.14-1.89 2.63-3.43 5.61-4.45 8.66-.86 2.56-1.34 5.17-1.34 7.64v4.31c0 4.33 1.52 7.39 3.96 8.82l-9.69-5.65c-2.45-1.42-3.96-4.48-3.96-8.81v-4.31C2236.21 1765.63 2236.69 1763.02 2237.55 1760.45z"/><path d="M2259.22,1750.3l97.9-57.41c7.4-4.31,13.32-0.79,13.31,7.92v4.31c0,8.62-5.92,19.13-13.32,23.44l-97.9,57.41
			c-7.32,4.26-13.31,0.7-13.31-7.92v-4.31C2245.9,1765.03,2251.91,1754.57,2259.22,1750.3z"/><path fill="#fff" d="M2081.99,1852.12c1.02-3.05,2.56-6.03,4.45-8.66c2.14-2.98,4.75-5.51,7.53-7.14l97.9-57.41
			c3.67-2.14,6.98-2.35,9.38-0.95l9.69,5.66c-2.4-1.4-5.71-1.2-9.38,0.95l-97.9,57.41c-2.78,1.63-5.39,4.15-7.53,7.14
			c-1.89,2.63-3.43,5.61-4.45,8.66c-0.86,2.56-1.34,5.17-1.34,7.64v4.31c0,4.33,1.52,7.39,3.96,8.82l-9.69-5.65
			c-2.45-1.42-3.96-4.48-3.96-8.81v-4.31C2080.66,1857.29,2081.14,1854.68,2081.99,1852.12z"/><path d="M2103.67,1841.97l97.9-57.41c7.4-4.31,13.32-0.79,13.31,7.92v4.31c0,8.62-5.92,19.13-13.32,23.44l-97.9,57.41
			c-7.32,4.26-13.31,0.7-13.31-7.92v-4.31C2090.35,1856.7,2096.35,1846.24,2103.67,1841.97z"/><path fill="#fff" d="M2221.2 1393.38c7.17-4.23 18.83-4.23 26.04 0 7.21 4.24 7.24 11.09.08 15.32-7.17 4.23-18.82 4.24-26.04 0C2214.07 1404.48 2214.03 1397.61 2221.2 1393.38zM855.31 2073.8c.81-1.49 3.5-2.5 7.03-2.61 11.04-.35 25.21 7.31 31.02 16.72 1.89 3.07 2.56 5.93 1.74 7.45-.81 1.5-3.5 2.5-7.02 2.61-10.85.37-25.31-7.47-31.03-16.73C855.16 2078.18 854.49 2075.33 855.31 2073.8z"/><path d="M843.65 2089.51c8.49 13.77 27.49 24.22 43.73 24.22.4 0 .81-.01 1.21-.02 9.39-.3 16.83-4.27 20.39-10.89 3.58-6.65 2.77-15.1-2.21-23.18-5.49-8.9-15.43-16.41-26.14-20.61-6.25-2.45-12.76-3.77-18.79-3.58-9.4.3-16.84 4.27-20.4 10.9C837.87 2073 838.67 2081.44 843.65 2089.51zM857.05 2081.25c-1.89-3.07-2.56-5.92-1.74-7.44.81-1.49 3.5-2.5 7.03-2.61 11.04-.35 25.21 7.31 31.02 16.72 1.89 3.07 2.56 5.93 1.74 7.45-.81 1.5-3.5 2.5-7.02 2.61C877.23 2098.35 862.77 2090.51 857.05 2081.25zM787.09 1219.33c-.18 0-.35 0-.52-.01-13.34-.41-26.34-16.27-40.91-49.92-25.46-58.83-33.32-128.72-22.13-196.79 4.99-30.33 13.6-59.18 25.11-84.96-24.53-69.1-63.05-152.62-122.08-228.32-43.63-55.94-81.08-79.29-111.33-69.39-78.29 25.61-102.56 268.04-105.3 359.29-.13 4.35-3.84 7.68-8.11 7.63-4.35-.13-7.76-3.76-7.63-8.11.02-.84 2.69-84.96 17.7-172.01 20.56-119.24 53.68-187.13 98.44-201.77 37.22-12.18 80.51 12.94 128.65 74.67 56.21 72.08 94.16 151 119.28 218.41 10.76-19.97 23.38-37.54 37.43-51.79 38.12-38.67 83.47-50.31 127.97-32.92 9.1-48.78 27.41-93.09 57.27-115.52 3.47-2.61 8.41-1.91 11.02 1.57 2.61 3.48 1.91 8.41-1.57 11.02-24.02 18.04-42.52 57.76-51.73 109.44 57.35 26.73 90.58 63.84 94.03 105.4 2.96 35.79-17.07 71.72-52.29 93.77-14.93 9.35-29.83 5.5-40.86-10.56-20.3-29.56-28.87-107.13-18.49-179.18-.29-.12-.58-.24-.86-.36-27.59-11.47-69.64-15.85-113.27 28.41-15.76 15.98-29.82 36.89-41.29 61.17 12.94 37.24 21.84 70.04 27.72 94.96 22.92 97.08 27.79 190.72 11.59 222.67C799.42 1216.96 792.29 1219.33 787.09 1219.33zM756.36 910.31c-27.56 72.74-32.88 168.21 3.75 252.85 17.17 39.68 26.84 40.43 26.93 40.43.62-.02 2.11-1.21 3.83-4.6 12.29-24.24 11.96-106.75-12.87-211.92C773.11 966.35 766.1 940.06 756.36 910.31zM936.13 806.08c-.86 6.39-1.58 12.93-2.16 19.6-5.24 60.09 2.56 120.59 18.54 143.86 7.74 11.28 13.96 9.62 19.53 6.13 30.21-18.91 47.43-49.23 44.96-79.12C1014.11 861.81 985.59 830.07 936.13 806.08zM1188.86 1929.43c-5.19-7.91-16.69-19.51-29.37-28.35-37.51-26.14-81.41-26.31-116.09-2.15-38.53 26.85-31.36 57.98 2.01 81.24 14.89 10.38 29.83 16.5 41.72 20.13l-22.53 27.62c-10.23-2.49-28.72-10.12-48.7-23.31l-24.08 16.77-24.49-17.07 25.43-17.72c-4.59-4.31-8.71-8.74-12.3-13.26l-28.8 20.06-24.49-17.07 39.32-27.4c-10.09-28.13-.4-57.64 35.09-82.37 32.11-22.37 73.13-31.38 115.58-22.6l41.67-29.03 24.49 17.07-32.54 22.67c6.11 2.64 12.2 5.67 18.27 9.1l29.93-20.85 24.49 17.07-29.33 20.43c17.44 13.32 28.05 25.31 31.62 32.14L1188.86 1929.43z"/><g><path d="M2281.18,1565.02c-14.7,64.48-22.39,130.54-21.47,197.51c0.46,33.96,3.81,70.18,24.73,96.94
			c22.85,29.22,62.6,40.82,99.66,39.32c90.55-3.65,167.12-75.33,203.55-158.31c36.43-82.98,40.44-176.05,43.06-266.64
			c2.06-71.32,3.64-143.59,20.87-213.21c7.39-29.85,61.8-150.38,20.25-170.19c-57.14-28.51-190.86,42.84-261.6,161.22
			C2351.96,1349.17,2306.31,1454.77,2281.18,1565.02z"/><path fill="#fff" d="M2578.4,1192.71c-4.02-2.24-9.1-0.78-11.33,3.24c-96.05,173.1-142.94,354.87-165.37,476.88
			c-0.12,0.67-0.24,1.32-0.36,1.98c-14.04-70.31-32.38-220.15,30.18-346.31c1.93-3.9,0.34-8.62-3.55-10.55
			c-3.9-1.93-8.62-0.34-10.55,3.55c-45.73,92.22-49.17,195.56-44,266.01c4.73,64.46,16.99,112.81,21.06,127.5
			c-17.4,109.31-18.7,182.82-18.71,183.65c-0.07,4.6,3.61,8.39,8.21,8.46c0.04,0,0.08,0,0.12,0c4.54,0,8.26-3.65,8.33-8.21
			c0.02-1.6,1.47-72.63,18.46-179.53c0.14-0.52,0.23-1.06,0.26-1.61c6.29-39.34,14.69-83.47,25.88-130.76
			c21.19-3.16,83.06-22.91,121.83-144.5c1.32-4.15-0.97-8.57-5.11-9.89c-4.14-1.33-8.57,0.97-9.89,5.11
			c-32.35,101.44-81.01,126.17-102.7,132.19c27.89-112.82,71.69-241.92,140.47-365.87
			C2583.87,1200.02,2582.42,1194.95,2578.4,1192.71z"/></g><g><path d="M1448.51,2099.93c-72.66-0.96-142.75,15.64-197.38,46.72c-54.15,30.81-87.02,72.41-93.04,117.49l-0.01,0.02l-4.92,57.82
			c-0.58,3.26-1.04,6.53-1.36,9.83c-4.84,49.86,29.28,96.36,80.94,130.94c49.16,32.91,116.65,49.75,190.05,49.75
			c80.74,0,138.78-21.42,194.19-52.95c58.23-33.14,84.62-70.51,89.46-120.36c0.32-3.29,0.5-6.57,0.55-9.84l0.83-52.54
			c-0.13-0.5-0.28-0.99-0.43-1.48c2.71-32.45-8.86-64.14-33.56-91.72C1628.03,2132.47,1543.8,2101.19,1448.51,2099.93z
			 M1203.97,2205.09c0.95-1.1,1.9-2.19,2.89-3.28C1205.87,2202.89,1204.92,2203.99,1203.97,2205.09z M1209.43,2199.07
			c1.01-1.06,2.03-2.12,3.09-3.17C1211.46,2196.95,1210.44,2198.01,1209.43,2199.07z M1189.88,2224.37
			c0.81-1.33,1.61-2.67,2.47-3.99C1191.49,2221.7,1190.69,2223.03,1189.88,2224.37z M1194.22,2217.66c0.83-1.21,1.66-2.42,2.54-3.61
			C1195.88,2215.25,1195.06,2216.46,1194.22,2217.66z M1198.9,2211.28c0.89-1.14,1.77-2.29,2.7-3.42
			C1200.67,2208.99,1199.79,2210.13,1198.9,2211.28z M1215.28,2193.22c1.08-1.03,2.17-2.05,3.28-3.06
			C1217.44,2191.17,1216.35,2192.19,1215.28,2193.22z M1221.5,2187.54c1.14-1,2.31-1.99,3.48-2.97
			C1223.81,2185.55,1222.65,2186.54,1221.5,2187.54z M1674.94,2212.6c0.11,0.18,0.23,0.35,0.34,0.53
			C1675.18,2212.96,1675.06,2212.78,1674.94,2212.6z M1678.85,2219.28c0.05,0.09,0.09,0.18,0.14,0.27
			C1678.94,2219.46,1678.9,2219.37,1678.85,2219.28z M1390.51,2119.74c2.1-0.26,4.21-0.49,6.33-0.71
			C1394.72,2119.26,1392.61,2119.49,1390.51,2119.74z M1357.51,2125.17c1.96-0.41,3.93-0.8,5.92-1.18
			C1361.44,2124.37,1359.47,2124.76,1357.51,2125.17z M1368.34,2123.08c2.01-0.36,4.02-0.7,6.04-1.03
			C1372.36,2122.39,1370.34,2122.72,1368.34,2123.08z M1379.34,2121.27c2.05-0.31,4.11-0.59,6.17-0.87
			C1383.45,2120.68,1381.39,2120.96,1379.34,2121.27z M1448.29,2116.6c-3.94-0.05-7.87-0.04-11.78,0.01
			C1440.42,2116.55,1444.35,2116.55,1448.29,2116.6z M1432.58,2116.71c-2.59,0.06-5.18,0.12-7.75,0.22
			C1427.4,2116.83,1429.99,2116.77,1432.58,2116.71z M1420.2,2117.18c-2.32,0.12-4.64,0.24-6.94,0.39
			C1415.56,2117.41,1417.88,2117.3,1420.2,2117.18z M1408.38,2117.95c-2.19,0.17-4.39,0.35-6.57,0.56
			C1403.99,2118.3,1406.19,2118.13,1408.38,2117.95z M1352.66,2126.2c-1.95,0.43-3.88,0.87-5.8,1.33
			C1348.78,2127.08,1350.72,2126.63,1352.66,2126.2z M1342.1,2128.68c-1.92,0.48-3.82,0.98-5.71,1.48
			C1338.28,2129.66,1340.18,2129.16,1342.1,2128.68z M1331.76,2131.41c-1.9,0.53-3.78,1.09-5.66,1.65
			C1327.97,2132.5,1329.85,2131.94,1331.76,2131.41z M1321.63,2134.4c-1.9,0.59-3.77,1.21-5.65,1.83
			C1317.86,2135.61,1319.73,2134.99,1321.63,2134.4z M1311.74,2137.63c-1.93,0.66-3.82,1.36-5.72,2.05
			C1307.91,2138.98,1309.81,2138.29,1311.74,2137.63z M1302.09,2141.1c-2.05,0.77-4.06,1.58-6.08,2.39
			C1298.02,2142.68,1300.03,2141.87,1302.09,2141.1z M1292.69,2144.8c-2.77,1.14-5.51,2.32-8.21,3.53
			C1287.18,2147.13,1289.91,2145.95,1292.69,2144.8z M1283.55,2148.73c-2.99,1.34-5.92,2.72-8.81,4.14
			C1277.63,2151.46,1280.57,2150.07,1283.55,2148.73z M1228.09,2182.03c1.21-0.97,2.45-1.93,3.7-2.89
			C1230.55,2180.1,1229.31,2181.06,1228.09,2182.03z M1235.05,2176.69c1.29-0.95,2.6-1.88,3.92-2.81
			C1237.65,2174.82,1236.33,2175.75,1235.05,2176.69z M1242.34,2171.54c1.37-0.93,2.77-1.84,4.17-2.74
			C1245.11,2169.71,1243.71,2170.62,1242.34,2171.54z M1249.96,2166.58c1.46-0.91,2.96-1.81,4.46-2.7
			C1252.93,2164.77,1251.43,2165.66,1249.96,2166.58z M1257.92,2161.81c1.59-0.92,3.22-1.81,4.85-2.7
			C1261.14,2160,1259.51,2160.89,1257.92,2161.81z M1266.18,2157.23c1.83-0.97,3.7-1.91,5.56-2.84
			C1269.87,2155.33,1268,2156.27,1266.18,2157.23z M1184.85,2233.41C1184.85,2233.41,1184.85,2233.41,1184.85,2233.41
			L1184.85,2233.41C1184.85,2233.41,1184.85,2233.41,1184.85,2233.41z M1188.38,2226.83c-1.02,1.77-1.96,3.56-2.88,5.36
			C1186.42,2230.4,1187.36,2228.6,1188.38,2226.83z M1682.25,2226.17c-0.12-0.26-0.23-0.51-0.35-0.77
			C1682.02,2225.65,1682.13,2225.91,1682.25,2226.17z M1684.8,2232.28c-0.01-0.03-0.02-0.05-0.03-0.08
			C1684.78,2232.22,1684.79,2232.25,1684.8,2232.28z M1671.55,2207.5c-0.37-0.53-0.75-1.06-1.14-1.59
			C1670.8,2206.44,1671.18,2206.97,1671.55,2207.5z M1667.29,2201.76c-0.42-0.53-0.82-1.06-1.25-1.59
			C1666.46,2200.7,1666.87,2201.23,1667.29,2201.76z"/><path fill="#fff" d="M1661.43,2194.73c-42.75-47.73-122.43-76.94-213.14-78.13c-130.08-1.71-243.72,55.22-269.21,130.69
			c-2.48,7.35-4.13,14.87-4.87,22.54c-2.74,28.22,7.39,56.05,29.29,80.5c42.75,47.73,122.43,76.94,213.14,78.13
			c142.74,1.88,265.69-66.82,274.08-153.23C1693.45,2247.02,1683.32,2219.18,1661.43,2194.73z"/><path fill="#fff" d="M1595.06,2215.61c-29.75-33.22-87.62-54.37-151.02-55.21c-92.2-1.21-172.71,38.85-190.65,91.95
			c-1.73,5.13-2.88,10.38-3.4,15.72c-1.9,19.55,5.16,38.87,20.4,55.89c29.75,33.22,87.62,54.37,151.02,55.21
			c101.11,1.33,188.16-46.95,194.04-107.68C1617.35,2251.96,1610.3,2232.63,1595.06,2215.61z"/><path d="M1444.26,2143.74c-52.48-0.69-103.15,11.31-142.65,33.79c-40.66,23.14-64.88,54.72-68.2,88.94
			c-2.36,24.31,6.14,48.04,24.57,68.62c33.26,37.13,94.28,59.85,163.22,60.75c52.48,0.69,103.15-11.31,142.65-33.79
			c32.89-18.72,55.03-42.96,64.04-69.66c2.13-6.3,3.53-12.74,4.16-19.28c2.36-24.31-6.14-48.04-24.57-68.62
			C1574.21,2167.36,1513.19,2144.65,1444.26,2143.74z M1421.41,2379.18c-63.4-0.84-121.27-21.99-151.02-55.21
			c-15.24-17.02-22.29-36.34-20.4-55.89c0.52-5.35,1.67-10.59,3.4-15.72c17.93-53.1,98.44-93.17,190.65-91.95
			c63.4,0.83,121.27,21.99,151.02,55.21c15.24,17.01,22.29,36.34,20.4,55.89C1609.57,2332.23,1522.52,2380.51,1421.41,2379.18z"/><path d="M1433.78,2223.72l-0.52-0.02c-3.16-22.07-15.75-32.75-31.25-33.45c-15.75-0.72-29.46,8.47-38.44,21.62
			c-5.73,7.74-9.94,16.3-13.41,27.1l-26.5-1.21l-3.81,20.35l25.07,1.14c-0.62,2.9-1.22,5.94-1.82,9.12
			c-0.88,4.68-1.69,9.43-2.43,14.13l-25.17-1.14l-3.81,20.33l26.16,1.19c-1.04,8.96-1.65,16.74-1.69,22.04l171.01,7.78
			c1.73-5.38,3.83-12.71,6.04-21.84l22.76,1.04l3.81-20.33l-22.13-1.01c0.32-1.62,0.64-3.26,0.95-4.95
			c1.22-6.53,2.18-12.61,2.92-18.32l22.61,1.03l3.81-20.35l-24.68-1.12c0.53-16.8-1.7-29.02-6.22-37.8
			c-6.54-12.42-17.44-20.99-33.19-21.71C1461.37,2186.3,1443.34,2201.93,1433.78,2223.72z M1370.34,2282.89
			c0.17-3.74,0.68-9.2,2.45-18.64c3.7-19.75,12.76-30.6,25.94-30c12.91,0.59,19.14,13.28,14.85,36.18l-2.68,14.31L1370.34,2282.89z
			 M1491.81,2271.39c-1.39,7.44-2.36,12.59-3.68,16.86l-49.09-2.23l2.79-14.88c4.07-21.74,14.32-38.89,31.89-38.09
			C1492.07,2233.88,1495.51,2251.64,1491.81,2271.39z"/></g><g><path d="M1398.48,2009.59c-72.66-0.96-142.75,15.64-197.38,46.72c-54.15,30.81-87.02,72.41-93.04,117.49l-0.01,0.02l-4.92,57.82
			c-0.58,3.26-1.04,6.53-1.36,9.83c-4.84,49.86,29.28,96.36,80.94,130.94c49.16,32.91,116.65,49.75,190.05,49.75
			c80.74,0,138.78-21.42,194.19-52.95c58.23-33.14,84.62-70.51,89.46-120.36c0.32-3.3,0.5-6.57,0.55-9.84l0.83-52.54
			c-0.13-0.5-0.28-0.99-0.43-1.48c2.71-32.45-8.86-64.14-33.56-91.72C1578,2042.13,1493.77,2010.85,1398.48,2009.59z
			 M1153.94,2114.75c0.95-1.1,1.9-2.19,2.89-3.28C1155.84,2112.55,1154.89,2113.65,1153.94,2114.75z M1159.4,2108.74
			c1.01-1.06,2.03-2.12,3.09-3.17C1161.43,2106.61,1160.41,2107.67,1159.4,2108.74z M1139.85,2134.03c0.81-1.33,1.61-2.67,2.47-3.99
			C1141.46,2131.36,1140.66,2132.69,1139.85,2134.03z M1144.19,2127.32c0.83-1.21,1.66-2.42,2.54-3.61
			C1145.85,2124.91,1145.03,2126.12,1144.19,2127.32z M1148.87,2120.94c0.89-1.14,1.77-2.29,2.7-3.42
			C1150.64,2118.65,1149.76,2119.79,1148.87,2120.94z M1165.25,2102.88c1.08-1.03,2.17-2.05,3.28-3.06
			C1167.41,2100.83,1166.32,2101.85,1165.25,2102.88z M1171.47,2097.2c1.14-1,2.31-1.99,3.48-2.97
			C1173.78,2095.21,1172.62,2096.2,1171.47,2097.2z M1624.91,2122.26c0.11,0.18,0.23,0.35,0.34,0.53
			C1625.15,2122.62,1625.03,2122.44,1624.91,2122.26z M1628.82,2128.94c0.05,0.09,0.09,0.18,0.14,0.27
			C1628.91,2129.12,1628.87,2129.03,1628.82,2128.94z M1340.48,2029.41c2.1-0.26,4.21-0.49,6.33-0.71
			C1344.69,2028.92,1342.58,2029.15,1340.48,2029.41z M1307.48,2034.83c1.96-0.41,3.93-0.8,5.92-1.18
			C1311.41,2034.03,1309.44,2034.42,1307.48,2034.83z M1318.31,2032.74c2.01-0.36,4.02-0.7,6.04-1.03
			C1322.33,2032.05,1320.31,2032.39,1318.31,2032.74z M1329.31,2030.93c2.05-0.31,4.11-0.59,6.17-0.87
			C1333.42,2030.34,1331.36,2030.62,1329.31,2030.93z M1398.26,2026.26c-3.94-0.05-7.87-0.04-11.78,0.01
			C1390.39,2026.21,1394.32,2026.21,1398.26,2026.26z M1382.55,2026.37c-2.59,0.06-5.18,0.12-7.75,0.22
			C1377.37,2026.49,1379.96,2026.43,1382.55,2026.37z M1370.17,2026.84c-2.32,0.12-4.64,0.24-6.94,0.39
			C1365.53,2027.07,1367.85,2026.96,1370.17,2026.84z M1358.35,2027.61c-2.19,0.17-4.39,0.35-6.57,0.56
			C1353.96,2027.96,1356.16,2027.79,1358.35,2027.61z M1302.63,2035.86c-1.95,0.43-3.88,0.87-5.8,1.33
			C1298.75,2036.74,1300.69,2036.29,1302.63,2035.86z M1292.07,2038.34c-1.92,0.48-3.82,0.98-5.71,1.48
			C1288.25,2039.32,1290.15,2038.82,1292.07,2038.34z M1281.73,2041.07c-1.9,0.53-3.78,1.09-5.66,1.65
			C1277.94,2042.16,1279.82,2041.6,1281.73,2041.07z M1271.6,2044.06c-1.9,0.59-3.77,1.21-5.65,1.83
			C1267.83,2045.27,1269.7,2044.65,1271.6,2044.06z M1261.71,2047.29c-1.93,0.66-3.82,1.36-5.72,2.05
			C1257.88,2048.64,1259.78,2047.95,1261.71,2047.29z M1252.06,2050.76c-2.05,0.77-4.06,1.58-6.08,2.39
			C1247.99,2052.34,1250,2051.53,1252.06,2050.76z M1242.66,2054.46c-2.77,1.14-5.51,2.32-8.21,3.53
			C1237.15,2056.79,1239.88,2055.61,1242.66,2054.46z M1233.52,2058.39c-2.99,1.34-5.92,2.72-8.81,4.14
			C1227.6,2061.12,1230.54,2059.73,1233.52,2058.39z M1178.06,2091.69c1.21-0.97,2.45-1.93,3.7-2.89
			C1180.52,2089.76,1179.28,2090.72,1178.06,2091.69z M1185.02,2086.35c1.29-0.95,2.6-1.88,3.92-2.81
			C1187.62,2084.48,1186.3,2085.41,1185.02,2086.35z M1192.31,2081.2c1.37-0.93,2.77-1.84,4.17-2.74
			C1195.08,2079.37,1193.68,2080.28,1192.31,2081.2z M1199.93,2076.24c1.46-0.91,2.96-1.81,4.46-2.7
			C1202.9,2074.43,1201.4,2075.32,1199.93,2076.24z M1207.89,2071.47c1.59-0.92,3.22-1.81,4.85-2.7
			C1211.11,2069.66,1209.48,2070.55,1207.89,2071.47z M1216.15,2066.89c1.83-0.97,3.7-1.91,5.56-2.84
			C1219.84,2064.99,1217.97,2065.93,1216.15,2066.89z M1134.82,2143.07C1134.82,2143.07,1134.82,2143.07,1134.82,2143.07
			L1134.82,2143.07C1134.82,2143.07,1134.82,2143.07,1134.82,2143.07z M1138.35,2136.49c-1.02,1.77-1.96,3.56-2.88,5.36
			C1136.39,2140.06,1137.33,2138.26,1138.35,2136.49z M1632.22,2135.83c-0.12-0.26-0.23-0.51-0.35-0.77
			C1631.99,2135.31,1632.1,2135.57,1632.22,2135.83z M1634.77,2141.94c-0.01-0.03-0.02-0.05-0.03-0.08
			C1634.75,2141.89,1634.76,2141.91,1634.77,2141.94z M1621.52,2117.16c-0.37-0.53-0.75-1.06-1.14-1.59
			C1620.77,2116.1,1621.15,2116.63,1621.52,2117.16z M1617.26,2111.42c-0.42-0.53-0.82-1.06-1.25-1.59
			C1616.43,2110.36,1616.84,2110.89,1617.26,2111.42z"/><path fill="#fff" d="M1611.4,2104.39c-42.75-47.73-122.43-76.94-213.14-78.13c-130.08-1.71-243.72,55.22-269.21,130.69
			c-2.48,7.35-4.13,14.87-4.87,22.54c-2.74,28.22,7.39,56.05,29.29,80.5c42.75,47.73,122.43,76.94,213.14,78.13
			c142.74,1.88,265.69-66.82,274.08-153.23C1643.42,2156.68,1633.29,2128.84,1611.4,2104.39z"/><path fill="#fff" d="M1545.03,2125.27c-29.75-33.22-87.62-54.37-151.02-55.21c-92.2-1.21-172.71,38.85-190.65,91.95
			c-1.73,5.13-2.88,10.38-3.4,15.72c-1.9,19.55,5.16,38.87,20.4,55.89c29.75,33.22,87.62,54.37,151.02,55.21
			c101.11,1.33,188.16-46.95,194.04-107.68C1567.32,2161.62,1560.27,2142.29,1545.03,2125.27z"/><path d="M1394.23,2053.4c-52.48-0.69-103.15,11.31-142.65,33.79c-40.66,23.14-64.88,54.72-68.2,88.94
			c-2.36,24.31,6.14,48.04,24.57,68.62c33.26,37.13,94.28,59.85,163.22,60.75c52.48,0.69,103.15-11.31,142.65-33.79
			c32.89-18.72,55.03-42.96,64.04-69.66c2.13-6.3,3.53-12.74,4.16-19.28c2.36-24.31-6.14-48.04-24.57-68.62
			C1524.18,2077.02,1463.16,2054.31,1394.23,2053.4z M1371.38,2288.84c-63.4-0.84-121.27-21.99-151.02-55.21
			c-15.24-17.02-22.29-36.34-20.4-55.89c0.52-5.35,1.67-10.59,3.4-15.72c17.93-53.1,98.44-93.17,190.65-91.95
			c63.4,0.83,121.27,21.99,151.02,55.21c15.24,17.01,22.29,36.34,20.4,55.89C1559.54,2241.89,1472.49,2290.17,1371.38,2288.84z"/><path d="M1383.75,2133.38l-0.52-0.02c-3.16-22.07-15.75-32.75-31.25-33.45c-15.75-0.72-29.46,8.47-38.44,21.62
			c-5.73,7.74-9.94,16.3-13.41,27.1l-26.5-1.21l-3.81,20.35l25.07,1.14c-0.62,2.9-1.22,5.94-1.82,9.12
			c-0.88,4.68-1.69,9.43-2.43,14.13l-25.17-1.14l-3.81,20.33l26.16,1.19c-1.04,8.96-1.65,16.74-1.69,22.04l171.01,7.78
			c1.73-5.38,3.83-12.71,6.04-21.84l22.76,1.04l3.81-20.33l-22.13-1.01c0.32-1.62,0.64-3.26,0.95-4.95
			c1.22-6.53,2.18-12.61,2.92-18.32l22.61,1.03l3.81-20.35l-24.68-1.12c0.53-16.8-1.7-29.02-6.22-37.8
			c-6.54-12.42-17.44-20.99-33.19-21.71C1411.34,2095.96,1393.31,2111.59,1383.75,2133.38z M1320.31,2192.55
			c0.17-3.74,0.68-9.2,2.45-18.64c3.7-19.75,12.76-30.6,25.94-30c12.91,0.59,19.14,13.28,14.85,36.18l-2.68,14.31L1320.31,2192.55z
			 M1441.78,2181.05c-1.39,7.44-2.36,12.6-3.68,16.86l-49.09-2.23l2.79-14.88c4.07-21.74,14.32-38.89,31.89-38.09
			C1442.04,2143.54,1445.48,2161.3,1441.78,2181.05z"/></g><g><path d="M1516.82,1899.3c-72.66-0.96-142.75,15.64-197.38,46.72c-54.15,30.81-87.02,72.41-93.04,117.49l-0.01,0.02l-4.92,57.82
			c-0.58,3.26-1.04,6.53-1.36,9.83c-4.84,49.86,29.28,96.36,80.94,130.94c49.16,32.91,116.65,49.75,190.05,49.75
			c80.74,0,138.78-21.42,194.19-52.95c58.23-33.14,84.62-70.51,89.46-120.36c0.32-3.3,0.5-6.57,0.55-9.84l0.83-52.54
			c-0.13-0.5-0.28-0.99-0.43-1.48c2.71-32.45-8.86-64.14-33.56-91.72C1696.35,1931.84,1612.11,1900.56,1516.82,1899.3z
			 M1272.29,2004.46c0.95-1.1,1.9-2.2,2.89-3.28C1274.18,2002.26,1273.23,2003.36,1272.29,2004.46z M1277.74,1998.44
			c1.01-1.06,2.03-2.12,3.09-3.17C1279.78,1996.32,1278.76,1997.38,1277.74,1998.44z M1258.2,2023.73c0.81-1.33,1.61-2.67,2.47-3.99
			C1259.8,2021.06,1259.01,2022.4,1258.2,2023.73z M1262.54,2017.03c0.83-1.21,1.66-2.42,2.54-3.61
			C1264.2,2014.61,1263.37,2015.82,1262.54,2017.03z M1267.22,2010.64c0.89-1.14,1.77-2.29,2.7-3.42
			C1268.99,2008.36,1268.1,2009.5,1267.22,2010.64z M1283.59,1992.59c1.08-1.03,2.17-2.05,3.28-3.06
			C1285.76,1990.54,1284.67,1991.56,1283.59,1992.59z M1289.82,1986.91c1.14-1,2.31-1.99,3.48-2.97
			C1292.13,1984.92,1290.96,1985.91,1289.82,1986.91z M1743.26,2011.97c0.11,0.18,0.23,0.35,0.34,0.53
			C1743.49,2012.32,1743.37,2012.15,1743.26,2011.97z M1747.17,2018.65c0.05,0.09,0.09,0.18,0.14,0.27
			C1747.26,2018.82,1747.21,2018.73,1747.17,2018.65z M1458.83,1919.11c2.1-0.26,4.21-0.49,6.33-0.71
			C1463.04,1918.63,1460.93,1918.85,1458.83,1919.11z M1425.82,1924.54c1.96-0.41,3.93-0.8,5.92-1.18
			C1429.76,1923.74,1427.79,1924.13,1425.82,1924.54z M1436.65,1922.45c2.01-0.36,4.02-0.7,6.04-1.03
			C1440.67,1921.75,1438.66,1922.09,1436.65,1922.45z M1447.66,1920.64c2.05-0.31,4.11-0.59,6.17-0.87
			C1451.76,1920.05,1449.7,1920.33,1447.66,1920.64z M1516.6,1915.97c-3.94-0.05-7.87-0.04-11.78,0.01
			C1508.74,1915.92,1512.66,1915.91,1516.6,1915.97z M1500.89,1916.08c-2.59,0.06-5.18,0.12-7.75,0.22
			C1495.72,1916.2,1498.3,1916.14,1500.89,1916.08z M1488.52,1916.54c-2.32,0.12-4.64,0.24-6.94,0.39
			C1483.88,1916.78,1486.2,1916.66,1488.52,1916.54z M1476.7,1917.32c-2.19,0.17-4.39,0.35-6.57,0.56
			C1472.31,1917.67,1474.5,1917.5,1476.7,1917.32z M1420.98,1925.57c-1.95,0.43-3.88,0.87-5.8,1.33
			C1417.1,1926.44,1419.03,1926,1420.98,1925.57z M1410.42,1928.05c-1.92,0.48-3.82,0.98-5.71,1.48
			C1406.6,1929.02,1408.5,1928.52,1410.42,1928.05z M1400.07,1930.78c-1.9,0.53-3.78,1.09-5.66,1.65
			C1396.29,1931.87,1398.17,1931.31,1400.07,1930.78z M1389.95,1933.76c-1.9,0.59-3.77,1.21-5.65,1.83
			C1386.17,1934.97,1388.05,1934.36,1389.95,1933.76z M1380.05,1937c-1.93,0.66-3.82,1.36-5.72,2.05
			C1376.23,1938.35,1378.13,1937.66,1380.05,1937z M1370.4,1940.47c-2.05,0.77-4.06,1.58-6.08,2.39
			C1366.34,1942.05,1368.35,1941.24,1370.4,1940.47z M1361,1944.17c-2.77,1.14-5.51,2.32-8.21,3.53
			C1355.5,1946.49,1358.23,1945.31,1361,1944.17z M1351.87,1948.1c-2.99,1.34-5.92,2.72-8.81,4.14
			C1345.95,1950.82,1348.88,1949.44,1351.87,1948.1z M1296.41,1981.4c1.21-0.97,2.45-1.93,3.7-2.89
			C1298.86,1979.47,1297.63,1980.43,1296.41,1981.4z M1303.36,1976.06c1.29-0.95,2.6-1.88,3.92-2.81
			C1305.96,1974.18,1304.65,1975.12,1303.36,1976.06z M1310.65,1970.91c1.37-0.93,2.77-1.84,4.17-2.74
			C1313.42,1969.07,1312.02,1969.98,1310.65,1970.91z M1318.28,1965.95c1.46-0.91,2.96-1.81,4.46-2.7
			C1321.25,1964.14,1319.75,1965.03,1318.28,1965.95z M1326.23,1961.17c1.59-0.92,3.22-1.81,4.85-2.7
			C1329.46,1959.37,1327.82,1960.26,1326.23,1961.17z M1334.49,1956.6c1.83-0.97,3.7-1.91,5.56-2.84
			C1338.19,1954.7,1336.32,1955.63,1334.49,1956.6z M1253.17,2032.78C1253.17,2032.78,1253.17,2032.78,1253.17,2032.78
			L1253.17,2032.78C1253.17,2032.78,1253.17,2032.78,1253.17,2032.78z M1256.69,2026.2c-1.02,1.77-1.96,3.56-2.88,5.36
			C1254.73,2029.76,1255.68,2027.97,1256.69,2026.2z M1750.56,2025.53c-0.12-0.26-0.23-0.51-0.35-0.77
			C1750.33,2025.02,1750.45,2025.28,1750.56,2025.53z M1753.12,2031.64c-0.01-0.03-0.02-0.05-0.03-0.08
			C1753.09,2031.59,1753.11,2031.62,1753.12,2031.64z M1739.87,2006.87c-0.37-0.53-0.75-1.06-1.14-1.59
			C1739.11,2005.81,1739.5,2006.34,1739.87,2006.87z M1735.6,2001.13c-0.42-0.53-0.82-1.06-1.25-1.59
			C1734.78,2000.07,1735.19,2000.6,1735.6,2001.13z"/><path fill="#fff" d="M1729.74,1994.1c-42.75-47.73-122.43-76.94-213.14-78.13c-130.08-1.71-243.72,55.22-269.21,130.69
			c-2.48,7.35-4.13,14.87-4.87,22.54c-2.74,28.22,7.39,56.05,29.29,80.5c42.75,47.73,122.43,76.94,213.14,78.13
			c142.74,1.88,265.69-66.82,274.08-153.23C1761.77,2046.38,1751.64,2018.55,1729.74,1994.1z"/><path fill="#fff" d="M1663.37,2014.98c-29.75-33.22-87.62-54.37-151.02-55.21c-92.2-1.21-172.71,38.85-190.65,91.95
			c-1.73,5.13-2.88,10.38-3.4,15.72c-1.9,19.55,5.16,38.87,20.4,55.89c29.75,33.22,87.62,54.37,151.02,55.21
			c101.11,1.33,188.16-46.95,194.04-107.68C1685.67,2051.32,1678.62,2031.99,1663.37,2014.98z"/><path d="M1512.57,1943.11c-52.48-0.69-103.15,11.31-142.65,33.79c-40.66,23.14-64.88,54.72-68.2,88.94
			c-2.36,24.31,6.14,48.04,24.57,68.62c33.26,37.13,94.28,59.85,163.22,60.75c52.48,0.69,103.15-11.31,142.65-33.79
			c32.89-18.72,55.03-42.96,64.04-69.66c2.13-6.3,3.53-12.74,4.16-19.28c2.36-24.31-6.14-48.04-24.57-68.62
			C1642.53,1966.72,1581.51,1944.01,1512.57,1943.11z M1489.73,2178.55c-63.4-0.84-121.27-21.99-151.02-55.21
			c-15.24-17.02-22.29-36.34-20.4-55.89c0.52-5.35,1.67-10.59,3.4-15.72c17.93-53.1,98.44-93.17,190.65-91.95
			c63.4,0.83,121.27,21.99,151.02,55.21c15.24,17.01,22.29,36.34,20.4,55.89C1677.89,2131.6,1590.83,2179.88,1489.73,2178.55z"/><path d="M1502.1,2023.09l-0.52-0.02c-3.16-22.07-15.75-32.75-31.25-33.45c-15.75-0.72-29.46,8.47-38.44,21.62
			c-5.73,7.74-9.94,16.3-13.41,27.1l-26.5-1.21l-3.81,20.35l25.07,1.14c-0.62,2.9-1.22,5.94-1.82,9.12
			c-0.88,4.68-1.69,9.43-2.43,14.13l-25.17-1.14l-3.81,20.33l26.16,1.19c-1.04,8.96-1.65,16.74-1.69,22.04l171.01,7.78
			c1.73-5.38,3.83-12.71,6.04-21.84l22.76,1.03l3.81-20.33l-22.13-1.01c0.32-1.62,0.64-3.26,0.95-4.95
			c1.22-6.53,2.18-12.61,2.92-18.32l22.61,1.03l3.81-20.35l-24.68-1.12c0.53-16.8-1.7-29.02-6.22-37.8
			c-6.54-12.42-17.44-20.99-33.19-21.71C1529.69,1985.67,1511.65,2001.3,1502.1,2023.09z M1438.66,2082.26
			c0.17-3.74,0.68-9.2,2.45-18.64c3.7-19.75,12.76-30.6,25.94-30c12.91,0.59,19.14,13.28,14.85,36.18l-2.68,14.31L1438.66,2082.26z
			 M1560.13,2070.75c-1.39,7.44-2.36,12.59-3.68,16.86l-49.09-2.23l2.79-14.88c4.07-21.74,14.32-38.89,31.89-38.09
			C1560.38,2033.25,1563.83,2051.01,1560.13,2070.75z"/></g><g><path d="M1914.25,1557.44c0-0.23,0.02-0.46,0.02-0.69c0-0.61-0.04-1.22-0.05-1.83l-0.02-1.16l-0.02,0
				c-1.82-44.41-44.13-85.41-119.65-115.73c-74.8-30.03-174.08-46.57-279.55-46.57c-105.46,0-204.74,16.54-279.55,46.57
				c-76.74,30.81-119.2,72.65-119.71,117.9l-0.02,0l0,0.73c0,0.03,0,0.07,0,0.1c0,0.03,0,0.06,0,0.08l-0.35,122.82
				c0,86.69,174.8,156.96,399.46,156.96c224.67,0,401.12-64.59,401.12-151.28L1914.25,1557.44z"/><path fill="#fff" d="M1788.33,1453.5c-72.88-29.26-169.95-45.37-273.34-45.37c-103.39,0-200.46,16.11-273.34,45.37
				c-69.45,27.88-109.28,65.52-109.28,103.25c0,37.74,39.83,75.37,109.28,103.26c72.88,29.26,169.95,45.37,273.34,45.37
				c103.39,0,200.46-16.11,273.34-45.37c69.45-27.88,109.28-65.52,109.28-103.26C1897.61,1519.02,1857.78,1481.38,1788.33,1453.5z"/><path d="M1645.21 1384.79c-4.35 0-7.87-3.53-7.87-7.87V818.33c0-4.35 3.53-7.87 7.87-7.87s7.87 3.53 7.87 7.87v558.59C1653.08 1381.26 1649.56 1384.79 1645.21 1384.79zM1503.35 1017.99c-4.35 0-7.87-3.53-7.87-7.87V665.57c0-4.35 3.53-7.87 7.87-7.87 4.35 0 7.87 3.53 7.87 7.87v344.55C1511.22 1014.46 1507.7 1017.99 1503.35 1017.99z"/><path d="M1688.53,1037.1c-22.34-69.14-60.48-130.25-107.41-172.06c-46.52-41.44-96.44-59.29-141.08-50.56l-0.02,0l-58.13,8.57
				c-3.27,0.49-6.52,1.11-9.75,1.86c-48.78,11.37-84.59,50.67-100.83,110.68c-15.45,57.1-11.53,127.02,11.03,196.87
				c22.57,69.85,61.21,131.68,108.81,174.09c50.02,44.56,104.44,62.85,153.22,51.48c3.22-0.75,6.39-1.63,9.5-2.63l50.04-16.02
				c0.44-0.29,0.84-0.58,1.27-0.88c31.61-7.82,57.93-28.91,76.16-61.14C1715.14,1217.6,1717.83,1127.78,1688.53,1037.1z
				 M1510.67,839.06c1.34,0.55,2.69,1.1,4.03,1.69C1513.35,840.15,1512.01,839.6,1510.67,839.06z M1518.11,842.3
				c1.33,0.62,2.66,1.25,3.99,1.91C1520.77,843.55,1519.44,842.92,1518.11,842.3z M1487.89,831.88c1.52,0.34,3.04,0.67,4.57,1.06
				C1490.94,832.55,1489.42,832.22,1487.89,831.88z M1495.63,833.85c1.41,0.4,2.82,0.8,4.24,1.25
				C1498.46,834.65,1497.04,834.25,1495.63,833.85z M1503.18,836.24c1.37,0.47,2.73,0.95,4.1,1.46
				C1505.92,837.18,1504.55,836.71,1503.18,836.24z M1525.53,845.97c1.32,0.69,2.64,1.4,3.95,2.13
				C1528.16,847.37,1526.84,846.67,1525.53,845.97z M1532.9,850.06c1.31,0.76,2.62,1.55,3.93,2.35
				C1535.52,851.6,1534.22,850.82,1532.9,850.06z M1654.22,1287.68c-0.13,0.16-0.26,0.33-0.39,0.49
				C1653.96,1288.02,1654.09,1287.85,1654.22,1287.68z M1649.15,1293.52c-0.07,0.07-0.14,0.14-0.21,0.22
				C1649.01,1293.66,1649.08,1293.59,1649.15,1293.52z M1651.2,988.49c0.92,1.91,1.81,3.84,2.7,5.77
				C1653.01,992.33,1652.12,990.4,1651.2,988.49z M1635.51,958.96c1.01,1.73,2.02,3.47,3.01,5.23
				C1637.52,962.43,1636.52,960.69,1635.51,958.96z M1640.95,968.55c0.98,1.79,1.95,3.59,2.91,5.4
				C1642.89,972.14,1641.93,970.34,1640.95,968.55z M1646.18,978.4c0.95,1.84,1.87,3.7,2.8,5.57
				C1648.06,982.1,1647.13,980.24,1646.18,978.4z M1672.67,1042.23c-1.21-3.75-2.47-7.47-3.78-11.16
				C1670.2,1034.76,1671.46,1038.47,1672.67,1042.23z M1667.54,1027.37c-0.88-2.43-1.77-4.87-2.69-7.27
				C1665.77,1022.51,1666.65,1024.94,1667.54,1027.37z M1663.14,1015.8c-0.86-2.16-1.71-4.32-2.59-6.45
				C1661.43,1011.48,1662.28,1013.64,1663.14,1015.8z M1658.62,1004.85c-0.87-2.02-1.73-4.05-2.63-6.04
				C1656.89,1000.8,1657.75,1002.83,1658.62,1004.85z M1632.98,954.7c-1.03-1.71-2.07-3.4-3.12-5.07
				C1630.91,951.3,1631.95,952.99,1632.98,954.7z M1627.25,945.48c-1.07-1.66-2.15-3.3-3.23-4.94
				C1625.1,942.18,1626.19,943.82,1627.25,945.48z M1621.35,936.56c-1.11-1.63-2.24-3.24-3.37-4.84
				C1619.11,933.32,1620.24,934.93,1621.35,936.56z M1615.29,927.92c-1.17-1.61-2.35-3.19-3.54-4.77
				C1612.93,924.73,1614.12,926.31,1615.29,927.92z M1609.06,919.58c-1.24-1.62-2.51-3.19-3.77-4.77
				C1606.55,916.39,1607.82,917.96,1609.06,919.58z M1602.68,911.54c-1.39-1.7-2.8-3.34-4.2-4.99
				C1599.89,908.2,1601.29,909.85,1602.68,911.54z M1596.17,903.82c-1.97-2.26-3.96-4.47-5.97-6.65
				C1592.2,899.35,1594.2,901.56,1596.17,903.82z M1589.52,896.43c-2.23-2.4-4.48-4.74-6.74-7.03
				C1585.05,891.69,1587.29,894.03,1589.52,896.43z M1540.23,854.54c1.31,0.84,2.61,1.7,3.92,2.58
				C1542.85,856.24,1541.54,855.38,1540.23,854.54z M1547.51,859.42c1.31,0.92,2.61,1.86,3.91,2.82
				C1550.12,861.28,1548.82,860.33,1547.51,859.42z M1554.72,864.68c1.32,1,2.63,2.04,3.93,3.08
				C1557.35,866.71,1556.04,865.68,1554.72,864.68z M1561.87,870.32c1.33,1.09,2.66,2.23,3.99,3.36
				C1564.53,872.55,1563.2,871.41,1561.87,870.32z M1568.93,876.32c1.38,1.21,2.74,2.48,4.11,3.73
				C1571.67,878.8,1570.31,877.54,1568.93,876.32z M1575.91,882.69c1.5,1.42,2.99,2.89,4.47,4.36
				C1578.9,885.58,1577.41,884.11,1575.91,882.69z M1477.72,830C1477.72,830,1477.72,830,1477.72,830L1477.72,830
				C1477.72,830,1477.72,830,1477.72,830z M1485.08,831.24c-2-0.4-4-0.72-6-1.01C1481.07,830.52,1483.07,830.84,1485.08,831.24z
				 M1643.71,1298.94c0.21-0.19,0.41-0.38,0.62-0.58C1644.13,1298.56,1643.92,1298.75,1643.71,1298.94z M1638.74,1303.31
				c0.02-0.02,0.04-0.04,0.06-0.05C1638.78,1303.28,1638.76,1303.3,1638.74,1303.31z M1657.97,1282.84
				c0.38-0.52,0.76-1.05,1.14-1.59C1658.74,1281.78,1658.36,1282.32,1657.97,1282.84z M1662.05,1276.96
				c0.37-0.56,0.74-1.12,1.1-1.69C1662.79,1275.84,1662.41,1276.4,1662.05,1276.96z"/><path fill="#fff" d="M1666.83,1269.16c31.54-55.77,33.72-140.61,5.84-226.93c-40-123.79-130.29-213.25-209.95-213.25
				c-7.76,0-15.41,0.85-22.91,2.6c-27.61,6.43-50.74,24.93-66.9,53.5c-31.54,55.78-33.72,140.61-5.84,226.93
				c43.89,135.84,148.31,230.35,232.86,210.65C1627.54,1316.23,1650.68,1297.73,1666.83,1269.16z"/><path fill="#fff" d="M1625.82,1212.96c21.95-38.82,23.48-100.41,3.99-160.74c-28.35-87.74-92.06-151.21-148.11-151.21
				c-5.41,0-10.75,0.59-15.98,1.81c-19.13,4.46-35.18,17.32-46.43,37.21c-21.95,38.82-23.48,100.41-3.99,160.75
				c31.09,96.22,104.68,163.25,164.1,149.4C1598.52,1245.71,1614.57,1232.84,1625.82,1212.96z"/><path d="M1645.67,1047.09c-16.13-49.95-43.71-94.11-77.65-124.34c-34.93-31.12-72.6-43.96-106.09-36.16
				c-23.79,5.54-43.55,21.18-57.15,45.23c-24.54,43.39-26.54,108.47-5.34,174.07c16.14,49.95,43.71,94.11,77.65,124.34
				c28.26,25.17,58.31,38.39,86.49,38.39c6.65,0,13.2-0.74,19.6-2.23c23.79-5.54,43.55-21.19,57.15-45.24
				C1664.87,1177.77,1666.86,1112.69,1645.67,1047.09z M1415.29,1100.77c-19.49-60.33-17.96-121.93,3.99-160.75
				c11.25-19.88,27.3-32.75,46.43-37.21c5.23-1.22,10.57-1.81,15.98-1.81c56.05,0,119.77,63.46,148.11,151.21
				c19.49,60.33,17.96,121.93-3.99,160.74c-11.24,19.88-27.3,32.75-46.43,37.21C1519.97,1264.02,1446.38,1196.99,1415.29,1100.77z"/><path d="M1566.54 1062.75l-.14-.5c19.9-10.06 25.99-25.4 21.7-40.31-4.36-15.16-17.45-25.2-32.78-29.5-9.17-2.95-18.63-4.2-29.96-4.04l-7.34-25.5-20.5 2.9 6.94 24.11c-2.95.35-6.01.74-9.23 1.2-4.72.67-9.48 1.42-14.16 2.21l-6.97-24.21-20.48 2.9 7.24 25.16c-8.82 1.88-16.39 3.79-21.42 5.45l47.34 164.51c5.65-.08 13.26-.44 22.62-1.26l6.3 21.89 20.48-2.9-6.13-21.29c1.64-.22 3.3-.44 5-.68 6.58-.93 12.64-1.97 18.29-3.09l6.26 21.75 20.5-2.9-6.83-23.74c16.08-4.87 26.95-10.9 33.83-17.99 9.68-10.17 14.31-23.24 9.95-38.39C1610.82 1076.92 1590.24 1064.84 1566.54 1062.75zM1490.18 1021.57c3.6-1.03 8.94-2.3 18.45-3.65 19.89-2.81 33.07 2.3 36.72 14.98 3.58 12.42-6.46 22.38-29.52 25.64l-14.41 2.04L1490.18 1021.57zM1539.94 1132.98c-7.5 1.06-12.69 1.8-17.15 1.91l-13.59-47.22 14.99-2.12c21.9-3.1 41.42 1.13 46.29 18.03C1575.56 1121.22 1559.83 1130.17 1539.94 1132.98zM1271.78 1624.34c-4.35 0-7.87-3.53-7.87-7.87v-344.55c0-4.35 3.53-7.87 7.87-7.87 4.35 0 7.87 3.53 7.87 7.87v344.55C1279.65 1620.82 1276.13 1624.34 1271.78 1624.34zM1271.78 789.62c-4.35 0-7.87-3.53-7.87-7.87V568.7c0-4.35 3.53-7.87 7.87-7.87 4.35 0 7.87 3.53 7.87 7.87v213.05C1279.65 786.09 1276.13 789.62 1271.78 789.62zM1752.21 1624.34c-4.35 0-7.87-3.53-7.87-7.87v-344.55c0-4.35 3.53-7.87 7.87-7.87s7.87 3.53 7.87 7.87v344.55C1760.09 1620.82 1756.56 1624.34 1752.21 1624.34zM1752.21 1192.48c-4.35 0-7.87-3.53-7.87-7.87v-635c0-4.35 3.53-7.87 7.87-7.87s7.87 3.53 7.87 7.87v635C1760.09 1188.95 1756.56 1192.48 1752.21 1192.48zM1843.19 1364.75c-4.35 0-7.87-3.53-7.87-7.87v-344.55c0-4.35 3.53-7.87 7.87-7.87s7.87 3.53 7.87 7.87v344.55C1851.07 1361.23 1847.54 1364.75 1843.19 1364.75zM1843.19 913.25c-4.35 0-7.87-3.53-7.87-7.87V713.6c0-4.35 3.53-7.87 7.87-7.87s7.87 3.53 7.87 7.87v191.77C1851.07 909.72 1847.54 913.25 1843.19 913.25zM1149.86 1268.44c-4.35 0-7.87-3.53-7.87-7.87V740.97c0-4.35 3.53-7.87 7.87-7.87s7.87 3.53 7.87 7.87v519.59C1157.74 1264.91 1154.21 1268.44 1149.86 1268.44zM1149.86 1440.99c-4.35 0-7.87-3.53-7.87-7.87v-97.28c0-4.35 3.53-7.87 7.87-7.87s7.87 3.53 7.87 7.87v97.28C1157.74 1437.46 1154.21 1440.99 1149.86 1440.99zM1382.02 1357.01c-4.35 0-7.87-3.53-7.87-7.87V716.42c0-4.35 3.53-7.87 7.87-7.87 4.35 0 7.87 3.53 7.87 7.87v632.72C1389.89 1353.49 1386.37 1357.01 1382.02 1357.01zM1382.02 1658.85c-4.35 0-7.87-3.53-7.87-7.87v-201.22c0-4.35 3.53-7.87 7.87-7.87 4.35 0 7.87 3.53 7.87 7.87v201.22C1389.89 1655.32 1386.37 1658.85 1382.02 1658.85zM1382.02 611.7c-4.35 0-7.87-3.53-7.87-7.87V495.37c0-4.35 3.53-7.87 7.87-7.87 4.35 0 7.87 3.53 7.87 7.87v108.45C1389.89 608.17 1386.37 611.7 1382.02 611.7zM1560.24 1666.56c-4.35 0-7.87-3.53-7.87-7.87V1229.7c0-4.35 3.53-7.87 7.87-7.87s7.87 3.53 7.87 7.87v428.98C1568.11 1663.03 1564.59 1666.56 1560.24 1666.56zM1560.24 901.62c-4.35 0-7.87-3.53-7.87-7.87V569.5c0-4.35 3.53-7.87 7.87-7.87s7.87 3.53 7.87 7.87v324.24C1568.11 898.09 1564.59 901.62 1560.24 901.62z"/></g></svg>